<?xml version="1.0" encoding="iso-8859-1"?>
<!-- Generator: Adobe Illustrator 19.0.0, SVG Export Plug-In . SVG Version: 6.00 Build 0)  -->
<svg version="1.1" id="Capa_1" xmlns="http://www.w3.org/2000/svg" xmlns:xlink="http://www.w3.org/1999/xlink" x="0px" y="0px"
	 viewBox="0 0 512 512" style="enable-background:new 0 0 512 512;" xml:space="preserve">
<path style="fill:#CCCCCC;" d="M337.949,26H174.051C77.925,26,0,103.818,0,199.813v112.374C0,408.182,77.925,486,174.051,486H337.95
	C434.075,486,512,408.182,512,312.187V199.813C512,103.818,434.075,26,337.949,26z M462.56,314.156
	c0,81.574-66.218,147.711-147.913,147.711H197.353c-81.695,0-147.913-66.138-147.913-147.711V197.854
	c0-81.584,66.218-147.721,147.913-147.721h117.294c81.695,0,147.913,66.138,147.913,147.721V314.156z"/>
<g>
	<path style="fill:#8C8C8C;" d="M49.44,314.156V197.854c0-81.584,66.218-147.721,147.913-147.721h-25.409
		c-81.695,0-147.913,66.138-147.913,147.721v116.301c0,81.574,66.218,147.711,147.913,147.711h25.409
		C115.658,461.867,49.44,395.729,49.44,314.156z"/>
	<path style="fill:#8C8C8C;" d="M337.949,26H312.54c96.126,0,174.051,77.818,174.051,173.813v112.374
		C486.591,408.182,408.666,486,312.54,486h25.409C434.075,486,512,408.182,512,312.187V199.813C512,103.818,434.075,26,337.949,26z"
		/>
</g>
<path style="fill:#CCCCCC;" d="M378.182,445.054L277.178,257.011c-0.36-0.67-1.037-1.084-1.772-1.084h-38.812
	c-0.735,0-1.413,0.415-1.772,1.084L133.811,445.066c-1.092,2.033-4.066,1.009-3.789-1.303l23.74-198.112
	c0.421-3.515,1.313-6.957,2.651-10.235l75.089-183.985c0.868-2.126,3.902-1.479,3.902,0.833v172.698c0,1.173,0.91,2.124,2.032,2.124
	h37.127c1.122,0,2.032-0.951,2.032-2.124V52.277c0-2.312,3.035-2.96,3.902-0.832l74.993,183.988
	c1.332,3.267,2.22,6.697,2.641,10.199l23.839,198.117C382.249,446.062,379.274,447.087,378.182,445.054z"/>
<g>
	<path style="fill:#A6A6A6;" d="M209.236,224.962c0,1.173,0.91,2.124,2.032,2.124h26.168c-1.122,0-2.032-0.951-2.032-2.124V52.264
		c0-2.312-3.034-2.96-3.902-0.833l-10.755,26.352L209.236,224.962z"/>
	<path style="fill:#A6A6A6;" d="M208.654,257.011l-74.915,155.74l-3.716,31.012c-0.277,2.313,2.697,3.336,3.789,1.303
		l101.01-188.055c0.36-0.67,1.037-1.084,1.772-1.084h-26.168C209.691,255.927,209.013,256.341,208.654,257.011z"/>
</g>
<path style="fill:#8C8C8C;" d="M381.971,443.749l-23.839-198.117c-0.421-3.502-1.31-6.932-2.641-10.199L280.498,51.445
	c-0.867-2.127-3.902-1.48-3.902,0.832v53.795l52.727,129.361c1.332,3.267,2.22,6.697,2.641,10.199l17.581,146.106l28.637,53.315
	C379.274,447.087,382.249,446.062,381.971,443.749z"/>
<g>
</g>
<g>
</g>
<g>
</g>
<g>
</g>
<g>
</g>
<g>
</g>
<g>
</g>
<g>
</g>
<g>
</g>
<g>
</g>
<g>
</g>
<g>
</g>
<g>
</g>
<g>
</g>
<g>
</g>
</svg>
