<?xml version="1.0" encoding="iso-8859-1"?>
<!-- Generator: Adobe Illustrator 19.0.0, SVG Export Plug-In . SVG Version: 6.00 Build 0)  -->
<svg version="1.1" id="Capa_1" xmlns="http://www.w3.org/2000/svg" xmlns:xlink="http://www.w3.org/1999/xlink" x="0px" y="0px"
	 viewBox="0 0 512 512" style="enable-background:new 0 0 512 512;" xml:space="preserve">
<path style="fill:#CCCCCC;" d="M256,137C114.601,137,0,190.856,0,257.359c0,57.593,85.946,105.758,200.877,117.624
	c1.315,0.136,2.577-0.581,3.132-1.777l49.186-105.953c1.106-2.382,4.504-2.382,5.61,0l49.186,105.953
	c0.555,1.196,1.817,1.912,3.132,1.777C426.054,363.117,512,314.953,512,257.359C512,190.856,397.398,137,256,137z M365.63,313.142
	L258.263,198.138c-1.222-1.309-3.303-1.309-4.525,0L146.37,313.142c-60.924-5.863-101.203-39.198-101.203-69.184
	c0-38.696,86.626-81.831,210.834-81.831c124.292,0,210.834,43.135,210.834,81.831C466.834,273.944,426.554,307.279,365.63,313.142z"
	/>
<path style="fill:#8C8C8C;" d="M364.712,313.334c0.315-0.061,0.622-0.125,0.918-0.191L258.263,198.138
	c-1.222-1.309-3.303-1.309-4.525,0l-10.615,11.37l85.871,91.979C338.099,311.24,351.591,315.877,364.712,313.334z"/>
<path style="fill:#A6A6A6;" d="M204.529,316.609l-25.803,55.583c7.252,1.079,14.638,2.015,22.153,2.792
	c1.314,0.136,2.575-0.58,3.13-1.776L256,261.212l0,0l-2.805,6.042C230.608,279.85,215.397,293.197,204.529,316.609z"/>
<path style="fill:#8C8C8C;" d="M256,137c-4.318,0-8.611,0.052-12.877,0.151c135.414,3.152,243.123,55.736,243.123,120.208
	c0,53.827-75.08,99.412-178.726,114.832l0.471,1.016c0.555,1.196,1.817,1.912,3.132,1.777C426.054,363.117,512,314.952,512,257.36
	C512,190.856,397.398,137,256,137z"/>
<g>
</g>
<g>
</g>
<g>
</g>
<g>
</g>
<g>
</g>
<g>
</g>
<g>
</g>
<g>
</g>
<g>
</g>
<g>
</g>
<g>
</g>
<g>
</g>
<g>
</g>
<g>
</g>
<g>
</g>
</svg>
