<?xml version="1.0" encoding="iso-8859-1"?>
<!-- Generator: Adobe Illustrator 19.0.0, SVG Export Plug-In . SVG Version: 6.00 Build 0)  -->
<svg version="1.1" id="Capa_1" xmlns="http://www.w3.org/2000/svg" xmlns:xlink="http://www.w3.org/1999/xlink" x="0px" y="0px"
	 viewBox="0 0 512 512" style="enable-background:new 0 0 512 512;" xml:space="preserve">
<path style="fill:#CCCCCC;" d="M325.012,39H186.988C83.713,39,0,122.571,0,225.671v60.657C0,389.429,83.713,473,186.988,473h138.024
	C428.287,473,512,389.429,512,286.329v-60.657C512,122.571,428.287,39,325.012,39z M457.534,309.18
	c0,72.957-59.246,132.103-132.327,132.103H186.792c-73.081,0-132.327-59.145-132.327-132.103V202.82
	c0-72.957,59.246-132.103,132.327-132.103h138.415c73.081,0,132.327,59.145,132.327,132.103V309.18z"/>
<path style="fill:#A6A6A6;" d="M186.792,70.717h-25.755c-73.081,0-132.327,59.145-132.327,132.103v106.36
	c0,72.957,59.246,132.103,132.327,132.103h25.755c-73.081,0-132.327-59.145-132.327-132.103V202.82
	C54.466,129.862,113.711,70.717,186.792,70.717z"/>
<g>
	<path style="fill:#8C8C8C;" d="M325.012,39h-25.755c103.276,0,186.988,83.571,186.988,186.671v60.657
		C486.245,389.429,402.533,473,299.257,473h25.755C428.287,473,512,389.429,512,286.329v-60.657C512,122.571,428.287,39,325.012,39z
		"/>
	<path style="fill:#8C8C8C;" d="M469.66,169.128c-0.474,16.29-4.11,33.095-14.721,43.822c-4.255,4.309-10.178,7.95-17.359,11.179
		c-30.875,13.925-84.938,20.445-128.999,41.97c-24.81,12.203-41.559,52.308-48.69,72.695c-1.29,3.687-6.49,3.687-7.78,0
		c-7.131-20.387-23.88-60.492-48.69-72.695c-54.301-26.523-123.797-30.267-146.358-53.15
		c-10.611-10.727-14.247-27.531-14.721-43.822c-0.508-16.716,2.205-32.985,4.074-41.991c0.649-3.126,4.44-4.352,6.805-2.208
		c9.729,8.816,33.855,28.04,77.355,47.531c55.399,24.967,110.881,54.826,123.491,105.434c0.504,2.021,3.363,2.021,3.867,0
		c12.611-50.607,68.092-80.467,123.491-105.434c20.542-9.204,36.757-18.347,49.181-26.369c13.905-8.963,23.057-16.521,28.189-21.174
		c2.36-2.139,6.142-0.907,6.789,2.212C467.453,136.133,470.167,152.407,469.66,169.128z"/>
</g>
<path style="fill:#737474;" d="M469.66,169.128c-0.474,16.29-4.11,33.095-14.721,43.822c-4.255,4.309-10.178,7.95-17.359,11.179
	c6.387-29.969,1.267-49.159-0.989-59.3c-1.205-5.368-3.616-12.434-5.985-18.738c13.896-8.957,23.045-16.511,28.179-21.165
	c2.363-2.142,6.153-0.91,6.8,2.21C467.454,136.142,470.167,152.411,469.66,169.128z"/>
<path style="fill:#CCCCCC;" d="M469.66,169.128c-9.158,5.8-19.058,11.261-29.453,16.393c-29.319,14.501-62.553,26.359-93.963,35.635
	c-59.976,17.726-82.336,61.536-88.389,76.546c-0.675,1.674-3.034,1.674-3.709,0c-6.053-15.01-28.413-58.821-88.389-76.546
	c-42.536-12.557-88.431-29.866-123.416-52.029c-0.508-16.716,2.205-32.985,4.074-41.991c0.649-3.126,4.44-4.352,6.805-2.208
	c9.729,8.816,33.855,28.04,77.355,47.531c55.399,24.967,110.881,54.826,123.491,105.434c0.504,2.021,3.363,2.021,3.867,0
	c12.611-50.607,68.092-80.467,123.491-105.434c20.542-9.204,36.757-18.347,49.181-26.369c13.905-8.963,23.057-16.521,28.189-21.174
	c2.36-2.139,6.142-0.907,6.789,2.212C467.453,136.133,470.167,152.407,469.66,169.128z"/>
<path style="fill:#A6A6A6;" d="M469.66,169.128c-9.158,5.8-19.058,11.261-29.453,16.393c-0.834-9.05-2.544-15.889-3.616-20.692
	c-1.205-5.368-3.616-12.434-5.985-18.738c13.896-8.957,23.045-16.511,28.179-21.165c2.363-2.142,6.153-0.91,6.8,2.21
	C467.454,136.142,470.167,152.411,469.66,169.128z"/>
<g>
</g>
<g>
</g>
<g>
</g>
<g>
</g>
<g>
</g>
<g>
</g>
<g>
</g>
<g>
</g>
<g>
</g>
<g>
</g>
<g>
</g>
<g>
</g>
<g>
</g>
<g>
</g>
<g>
</g>
</svg>
